<?xml version="1.0" encoding="utf-8"?>
<!-- Generator: Adobe Illustrator 25.0.1, SVG Export Plug-In . SVG Version: 6.00 Build 0)  -->
<svg version="1.1" id="Capa_1" xmlns="http://www.w3.org/2000/svg" xmlns:xlink="http://www.w3.org/1999/xlink" x="0px" y="0px"
	 viewBox="0 0 119.3 93" style="enable-background:new 0 0 119.3 93;" xml:space="preserve">
<style type="text/css">
	.st0{fill:#C00D0D;}
</style>
<g id="icono2" transform="translate(-15.872 -14.115)">
	<g id="Group_3" transform="translate(15.88 14.115)">
		<g id="Group_2">
			<path id="Path_3" class="st0" d="M119,47.8c-0.2-0.3-0.4-0.6-0.7-0.7h0.1l-77-46.8c-0.6-0.4-1.5-0.4-2.1,0L1.2,20.7
				c-1,0.5-1.5,1.8-0.9,2.8c0.2,0.3,0.4,0.6,0.8,0.8l77.1,47.9c0.7,0.4,1.5,0.4,2.1,0l38-21.6C119.2,50.1,119.6,48.8,119,47.8
				C119,47.8,119,47.8,119,47.8z M79.3,68.1l-73-45.4L40.2,4.5l72.8,44.3L79.3,68.1z"/>
		</g>
	</g>
	<g id="Group_5" transform="translate(15.872 44.728)">
		<g id="Group_4" transform="translate(0 0)">
			<path id="Path_4" class="st0" d="M119,27.4c-0.6-1-1.9-1.4-2.9-0.8c0,0,0,0,0,0h0.1l-37,21L3.2,0.3C2.3-0.3,1,0,0.3,0.9
				s-0.4,2.3,0.6,2.9c0,0,0,0,0.1,0l77.1,47.9c0.7,0.4,1.5,0.4,2.1,0l38-21.6C119.3,29.7,119.6,28.4,119,27.4z"/>
		</g>
	</g>
	<g id="Group_7" transform="translate(15.872 54.934)">
		<g id="Group_6">
			<path id="Path_5" class="st0" d="M118.6,27.3c-0.5-0.7-1.5-1-2.3-0.7l-37.1,21L3.2,0.3C2.3-0.3,1,0,0.3,0.9s-0.4,2.3,0.6,2.9
				c0,0,0,0,0.1,0l77.1,48c0.7,0.4,1.5,0.4,2.1,0l38-21.6C119.2,29.6,119.3,28.3,118.6,27.3C118.6,27.3,118.6,27.3,118.6,27.3
				L118.6,27.3z"/>
		</g>
	</g>
	<g id="Group_9" transform="translate(63.143 38.316)">
		<g id="Group_8">
			<path id="Path_6" class="st0" d="M24.4,0.8c-0.7-0.9-2-1-2.9-0.3c0,0,0,0,0,0c-0.1,0-0.1,0.1-0.2,0.1l-2.2,2.1
				c-0.7-0.6-1.5-1.2-2.3-1.6c-1.1-0.5-2.4-0.7-3.6-0.6c-1.1,0.1-2.1,0.6-2.9,1.3C9.4,2.6,8.8,3.6,8.7,4.7C8.5,5.8,8.7,7,9,8.1
				c0.3,0.9,0.7,1.8,1.1,2.6l-4.2,3.8c0-0.1-0.1-0.3-0.1-0.4c-0.2-1,0-2,0.3-3c0.2-0.5,0.3-0.9,0.3-1.4c0-0.5-0.2-0.9-0.5-1.2
				c-0.7-0.9-2.1-1-3-0.3c0,0,0,0-0.1,0.1c-0.7,0.7-1.2,1.5-1.3,2.5c-0.2,1.3-0.1,2.5,0.4,3.7c0.3,0.9,0.7,1.7,1.3,2.5L0.7,19
				c-0.9,0.8-1,2.1-0.2,3c0.4,0.5,1,0.7,1.6,0.7l0,0.1c0.5,0,1-0.2,1.4-0.5l2.4-2.1c0.8,0.7,1.7,1.4,2.6,1.9c2.4,1.4,5.5,1,7.5-0.9
				c0.7-0.6,1.2-1.4,1.4-2.3c0.2-1,0.2-2.1-0.1-3.1c-0.4-1.4-0.9-2.7-1.6-4v-0.1l3.5-3.1c0.1,0.6,0.1,1.2,0,1.7
				c-0.1,0.6-0.2,1.3-0.2,1.9c0,0.5,0.2,1,0.6,1.4c0.4,0.5,1,0.8,1.6,0.9c0.6,0,1.1-0.2,1.5-0.5c0.4-0.4,0.8-1,0.9-1.6
				c0.2-0.8,0.2-1.6,0-2.3c-0.2-1-0.5-2-1-2.8c-0.2-0.4-0.5-0.8-0.7-1.2l2.3-2.1C25,3,25.2,1.7,24.4,0.8C24.5,0.8,24.5,0.8,24.4,0.8
				z M11.6,17.9c-0.5,0.4-1.3,0.5-1.9,0.3c-0.4-0.1-0.8-0.3-1.2-0.5l3.5-3.1c0.2,0.4,0.3,0.8,0.4,1.2C12.5,16.6,12.2,17.4,11.6,17.9
				z M13.6,7.6c-0.1-0.3-0.2-0.7-0.2-1C13.4,6,13.6,5.4,14,5.1c0.5-0.4,1.2-0.5,1.8-0.3C16,4.8,16.2,4.9,16.4,5L13.6,7.6z"/>
		</g>
	</g>
</g>
</svg>
