<?xml version="1.0" encoding="utf-8"?>
<!-- Generator: Adobe Illustrator 25.0.1, SVG Export Plug-In . SVG Version: 6.00 Build 0)  -->
<svg version="1.1" id="Capa_1" xmlns="http://www.w3.org/2000/svg" xmlns:xlink="http://www.w3.org/1999/xlink" x="0px" y="0px"
	 viewBox="0 0 57 53" style="enable-background:new 0 0 57 53;" xml:space="preserve">
<style type="text/css">
	.st0{fill-rule:evenodd;clip-rule:evenodd;fill:#C00D0D;}
</style>
<desc>Created with Sketch.</desc>
<g id="Page-1">
	<g id="VIP">
		<rect id="Rectangle-path" x="0.2" y="50" class="st0" width="56" height="3"/>
		<rect id="Rectangle-path_1_" x="0.2" y="0.9" class="st0" width="56" height="3"/>
		<g id="Group" transform="translate(3.000000, 17.000000)">
			<polygon id="Shape" class="st0" points="20.9,0.9 12,19.1 9.8,19.1 0.9,0.9 4.7,0.9 10.9,13.6 17.1,0.9 			"/>
			<polygon id="Shape_1_" class="st0" points="24.5,0.9 27.9,0.9 27.9,19.1 24.5,19.1 			"/>
			<path id="Shape_2_" class="st0" d="M47.5,2.9c-1.5-1.4-3.2-2.1-5.3-2.1h-9.8V19h3.4v-4.1h6.4c2.1,0,3.9-0.7,5.3-2.1s2.2-3,2.2-5
				S49,4.3,47.5,2.9z M45.1,10.6c-0.8,0.7-1.8,1.1-2.9,1.1h-6.4V4.1h6.4l0,0c1.1,0,2.1,0.4,2.9,1.1c0.8,0.8,1.2,1.7,1.2,2.7
				C46.3,9,45.9,9.9,45.1,10.6z"/>
		</g>
	</g>
</g>
</svg>
