<svg id="Capa_1" data-name="Capa 1" xmlns="http://www.w3.org/2000/svg" viewBox="0 0 95.42 48.69"><defs><style>.cls-1{fill:#9b0a0a;}</style></defs><title>llanoalto_logo</title><path d="M69.72,6.9c-1.32-.09-2.64-.21-4-.25-4.71-.13-9.41-.05-14.11.19a5.79,5.79,0,0,1-4.88-1.71,20.21,20.21,0,0,0-3.2-2.77c-.24-.16-.64-.32-.57-.63s.53-.3.84-.32a67.14,67.14,0,0,1,10.61.35c5.49.48,10.29,3,15.31,4.9Z" transform="translate(0 -1)"/><path d="M78.52,26.48c-5-.11-9.83-.26-14.66-.74-.64-.07-.78-.31-.77-.87A21.57,21.57,0,0,0,63,22.46c0-.47.09-.64.58-.6a57.92,57.92,0,0,0,5.89.16.73.73,0,0,1,.67.38,3.14,3.14,0,0,0,2.53,1.34A113.49,113.49,0,0,0,88.53,24c2.11-.18,4.26-.23,6.22-1.24.29-.15.32.1.41.24a1.33,1.33,0,0,1-.63,2.06,11.9,11.9,0,0,1-4.12.9C86.41,26.3,82.39,26.41,78.52,26.48Z" transform="translate(0 -1)"/><path d="M45.9,7.85l-12.65.5a.64.64,0,0,1-.71-.41A10.32,10.32,0,0,0,30.27,4.7c-.31-.29-.55-.63.05-.87a17.46,17.46,0,0,1,7.9-1.62C41.81,2.51,44.18,4.67,45.9,7.85Z" transform="translate(0 -1)"/><path d="M83.72,10.6a14.24,14.24,0,0,1,5.65.63A2.43,2.43,0,0,1,91.26,13,22.38,22.38,0,0,1,92,15.38c.11.69-.13,1-.9,1-2.4-.12-4.81-.2-7.21-.3a2.12,2.12,0,0,1-1.56-.85,14.29,14.29,0,0,1-2-3.07c-.46-1-.24-1.3.81-1.39l1.33-.07Z" transform="translate(0 -1)"/><path d="M80.83,14.88a17.08,17.08,0,0,0-5.27-4.48c-1.51-.81-3.2-.85-4.82-1.15A97.22,97.22,0,0,0,57.24,7.7c-.12,0-.13-.08,0-.13a107,107,0,0,1,18,.25A85,85,0,0,1,86.75,9.71a21.23,21.23,0,0,1,2,.71c0,.33-.18.19-.33.17-2.86-.8-5.74-.46-8.62-.2-.71.07-.84.35-.52,1,.56,1.11,1.13,2.21,1.7,3.32C81.07,14.88,81,14.92,80.83,14.88Z" transform="translate(0 -1)"/><path d="M54.92,13.63c2.77-.4,4.8,1.53,5.62,4.46a11.72,11.72,0,0,1-.4,7.42,5,5,0,0,1-5,3.32A5.24,5.24,0,0,0,57.81,27a11,11,0,0,0,1.62-6.74,9.8,9.8,0,0,0-.5-3.35C58.25,15.05,57.07,13.76,54.92,13.63Z" transform="translate(0 -1)"/><path d="M23,9a9.41,9.41,0,0,1,3.79-3.47c.19-.11.4-.2.59-.3,1.57-.8,1.75-.78,2.81.59a19.2,19.2,0,0,1,1.18,1.8c.39.67.31.8-.46.82q-2.23.08-4.47.12A20.13,20.13,0,0,0,23,9Z" transform="translate(0 -1)"/><path d="M77.78,27.27c3.83.08,7.43,0,11-.21-.31,1-2.62,2.29-4.36,2.58A7.24,7.24,0,0,1,77.78,27.27Z" transform="translate(0 -1)"/><path d="M77.31,14.69a1.79,1.79,0,0,1-1.72.28,4.14,4.14,0,0,1-2.8-2.34,1.48,1.48,0,0,1,0-1.64,1.42,1.42,0,0,1,1.6-.29c.24.06.47.15.71.22a5,5,0,0,1,2.29,1.8A1.43,1.43,0,0,1,77.31,14.69Z" transform="translate(0 -1)"/><path d="M38.75,26.37c-2.51,0-5,.12-7.54-.06s-4.7-.66-7-1l-6.14-1c0-.32.19-.21.35-.17,4.57.42,9.14.86,13.71,1.26,3.33.29,6.67.53,10,.79,0,.2-.12.22-.26.22C40.8,26.4,39.77,26.5,38.75,26.37Z" transform="translate(0 -1)"/><path d="M71.22,14.22A3.46,3.46,0,0,1,67,12.72c-.28-.47-.52-1-.15-1.45a1.46,1.46,0,0,1,1.59-.63c.18,0,.37.06.56.09a3.32,3.32,0,0,1,2.76,1.9C72.14,13.42,72,13.81,71.22,14.22Z" transform="translate(0 -1)"/><path d="M43.27,20.55c-5.59-.07-11.18-.13-16.76-.23a2.27,2.27,0,0,1-2.44-1.83c-.17-.47-.33-.95-.55-1.55a3.16,3.16,0,0,1,1,1,3.46,3.46,0,0,0,2.69,1.43L37.38,20l5.88.36s.06.07,0,.1S43.28,20.55,43.27,20.55Z" transform="translate(0 -1)"/><path d="M61.58,23.26c0,.93,0,1.86,0,2.78,0,.57.18.81.75.81s.92,0,1.6.08C62.79,28,62,29.2,60.36,29.22a33.39,33.39,0,0,1-3.67.05C59.7,28.2,61,26,61.58,23.26Z" transform="translate(0 -1)"/><path d="M42.61,22c-5.78.33-11.56.13-17.34,0a2.7,2.7,0,0,1-.41-.07c2.79-.8,5.58-.52,8.36-.43,3.13.09,6.25.22,9.37.33C42.72,21.92,42.72,22,42.61,22Z" transform="translate(0 -1)"/><path d="M29.13,2.72a29.26,29.26,0,0,0-7.72,5.47,30.52,30.52,0,0,1-7.35,4.72c-.2.09-.22,0-.2-.18a48.31,48.31,0,0,0,9.68-7,16.79,16.79,0,0,1,5.39-3.16C29.11,2.47,29.15,2.56,29.13,2.72Z" transform="translate(0 -1)"/><path d="M91.39,12.24a5.07,5.07,0,0,1,2,3.3c0,.15-.05.3-.19.34a.35.35,0,0,1-.27-.14A8.2,8.2,0,0,1,91.39,12.24Z" transform="translate(0 -1)"/><path d="M13.86,12.73l.2.18a29.51,29.51,0,0,1-4.67,2.16c-.19.08-.2,0-.18-.17Z" transform="translate(0 -1)"/><path d="M38.75,26.37c1.11-.2,2.23.12,3.33-.16,1.13,0,2.24.25,3.37.21A59.89,59.89,0,0,1,38.75,26.37Z" transform="translate(0 -1)"/><path d="M9.21,14.9l.18.17a21.74,21.74,0,0,1-4.74,1.55Z" transform="translate(0 -1)"/><path d="M43.27,20.55a.86.86,0,0,1,0-.16l3.77.17A13.53,13.53,0,0,1,43.27,20.55Z" transform="translate(0 -1)"/><path d="M31.26,1.7A12,12,0,0,1,35,1l-3.57.88C31.38,1.83,31.24,1.86,31.26,1.7Z" transform="translate(0 -1)"/><path d="M3.62,17A9.14,9.14,0,0,1,0,18.09Z" transform="translate(0 -1)"/><path d="M31.26,1.7l.19.18-2.32.84-.2-.17A8,8,0,0,1,31.26,1.7Z" transform="translate(0 -1)"/><path d="M18.37,24.16l-.35.17L15.6,24A10.72,10.72,0,0,1,18.37,24.16Z" transform="translate(0 -1)"/><path d="M42.61,22a.36.36,0,0,1,0-.14H45.7V22Z" transform="translate(0 -1)"/><path d="M57.23,7.57a.57.57,0,0,1,0,.13H54.85V7.57Z" transform="translate(0 -1)"/><path d="M88.45,10.59l.33-.17a3,3,0,0,1,1.11.6A3.81,3.81,0,0,1,88.45,10.59Z" transform="translate(0 -1)"/><path d="M80.83,14.88l.18-.17a2.62,2.62,0,0,1,.53,1.13A2.32,2.32,0,0,1,80.83,14.88Z" transform="translate(0 -1)"/><path class="cls-1" d="M15.82,38h4v1.54h-6V31.85h2Z" transform="translate(0 -1)"/><path class="cls-1" d="M22.61,38h4v1.54h-6V31.85h2Z" transform="translate(0 -1)"/><path class="cls-1" d="M28.8,39.58H26.64l2.93-7.73h2.21l2.93,7.73H32.55l-.5-1.38H29.29Zm1-2.81h1.77l-.89-2.6Z" transform="translate(0 -1)"/><path class="cls-1" d="M42,39.58H39.9L37.25,35v4.63h-2V31.85h2.1L40,36.49V31.85h2Z" transform="translate(0 -1)"/><path class="cls-1" d="M50.28,37.49a2.3,2.3,0,0,1-.52,1.68,2.33,2.33,0,0,1-1.69.52H45.31a2.33,2.33,0,0,1-1.69-.52,2.3,2.3,0,0,1-.52-1.68V34a2.3,2.3,0,0,1,.52-1.68,2.33,2.33,0,0,1,1.69-.53h2.76a2.33,2.33,0,0,1,1.69.53A2.3,2.3,0,0,1,50.28,34Zm-2-3.54a.58.58,0,0,0-.66-.66H45.75a.58.58,0,0,0-.66.66v3.54a.58.58,0,0,0,.66.66h1.88a.58.58,0,0,0,.66-.66Z" transform="translate(0 -1)"/><path class="cls-1" d="M56.08,39.58H53.93l2.92-7.73h2.21L62,39.58H59.83l-.49-1.38H56.58Zm1-2.81h1.77L58,34.17Z" transform="translate(0 -1)"/><path class="cls-1" d="M64.53,38h4v1.54h-6V31.85h2Z" transform="translate(0 -1)"/><path class="cls-1" d="M71.76,39.58h-2V33.4H67.46V31.85h6.62V33.4H71.76Z" transform="translate(0 -1)"/><path class="cls-1" d="M81.81,37.49a1.89,1.89,0,0,1-2.2,2.2H76.84a1.89,1.89,0,0,1-2.2-2.2V34a1.9,1.9,0,0,1,2.2-2.21h2.77A1.9,1.9,0,0,1,81.81,34Zm-2-3.54a.59.59,0,0,0-.67-.66H77.29a.59.59,0,0,0-.67.66v3.54a.59.59,0,0,0,.67.66h1.87a.59.59,0,0,0,.67-.66Z" transform="translate(0 -1)"/><path d="M26.72,45.28,25.18,48H23.63l-1.55-2.76v4.3h-2V41.85h2.1l2.2,4.09,2.21-4.09h2.1v7.73h-2Z" transform="translate(0 -1)"/><path d="M38.65,47.49a1.89,1.89,0,0,1-2.21,2.2H33.68a1.9,1.9,0,0,1-2.21-2.2V44a1.91,1.91,0,0,1,2.21-2.21h2.76A1.9,1.9,0,0,1,38.65,44Zm-2-3.54a.59.59,0,0,0-.67-.66H34.13a.59.59,0,0,0-.67.66v3.54a.59.59,0,0,0,.67.66H36a.59.59,0,0,0,.67-.66Z" transform="translate(0 -1)"/><path d="M45.17,49.58h-2V43.4H40.86V41.85h6.63V43.4H45.17Z" transform="translate(0 -1)"/><path d="M56.88,47.49a1.89,1.89,0,0,1-2.21,2.2H51.91a2.33,2.33,0,0,1-1.69-.52,2.3,2.3,0,0,1-.52-1.68V44a2.3,2.3,0,0,1,.52-1.68,2.33,2.33,0,0,1,1.69-.53h2.76A1.9,1.9,0,0,1,56.88,44Zm-2-3.54a.58.58,0,0,0-.66-.66H52.35a.58.58,0,0,0-.66.66v3.54a.58.58,0,0,0,.66.66h1.88a.58.58,0,0,0,.66-.66Z" transform="translate(0 -1)"/><path d="M59.64,41.85h4.64a1.91,1.91,0,0,1,2.21,2.21v1a2.8,2.8,0,0,1-.3,1.42,1.51,1.51,0,0,1-1,.67l1.38,2.43H64.45l-1.27-2.31H61.63v2.31h-2Zm4.86,2.21a.58.58,0,0,0-.66-.66H61.63v2.32h2.21a.58.58,0,0,0,.66-.66Z" transform="translate(0 -1)"/><path d="M69,48c2,.11,3.38.17,4.1.17a.52.52,0,0,0,.55-.55v-1H71.13a1.89,1.89,0,0,1-2.21-2.21v-.33a2.3,2.3,0,0,1,.52-1.68,2.33,2.33,0,0,1,1.69-.53H75V43.4H71.57a.58.58,0,0,0-.66.66v.22a.59.59,0,0,0,.66.67h2A1.81,1.81,0,0,1,75.66,47v.56a1.81,1.81,0,0,1-2.1,2.09c-.38,0-.78,0-1.19,0l-1,0c-.75,0-1.53-.09-2.33-.16Z" transform="translate(0 -1)"/></svg>